<?xml version="1.0" encoding="utf-8"?>
<!-- Generator: Adobe Illustrator 21.0.0, SVG Export Plug-In . SVG Version: 6.00 Build 0)  -->
<svg version="1.1" id="Layer_1" xmlns="http://www.w3.org/2000/svg" xmlns:xlink="http://www.w3.org/1999/xlink" x="0px" y="0px"
	 viewBox="0 0 26.1 26.1" style="enable-background:new 0 0 26.1 26.1;" xml:space="preserve">
<style type="text/css">
	.st0{fill:#494A4C;}
</style>
<g>
	<path class="st0" d="M24.8,25.1h-9.6l1.9-9.4l0.1,0c0.9,0.3,5.4,1.7,6,2c0.8,0.4,1,0.8,1.1,1.3c0.4,1.3,0.8,3.6,0.8,5.7
		C25.1,25,25,25.1,24.8,25.1 M14.5,23.1l-1-4.1l1.2-1.2l0.8,0.6l-0.9,4.7L14.5,23.1z M12.1,25.1l0.9-4h0.1l0.9,4H12.1z M11.5,23.1
		l-0.9-4.7l0.8-0.6l1.1,1.1l-0.9,4.2L11.5,23.1z M1.3,25.1C1.1,25.1,1,25,1,24.8c0-2,0.4-4.3,0.8-5.7c0.2-0.6,0.4-1,1.1-1.3
		c0.7-0.3,5.2-1.7,6-2l0.1,0l1.9,9.4H1.3z M13.8,15.9l2.1-1.6l0.3,0.8l-0.4,2.2L13.8,15.9z M10.3,17.4l-0.4-2.2l0.3-0.8l2.1,1.6
		L10.3,17.4z M13,16.5l0.9,0.7L13,18.1l-0.9-0.9L13,16.5z M9.3,9.4C9.3,9.4,9.2,9.5,9.3,9.4c-0.2,0-0.3,0-0.4-0.1
		c-0.5-0.4-0.7-1.5-0.5-2c0-0.1,0.1-0.1,0.1-0.1C8.7,7.2,8.8,7,8.8,6.8V4.2C8.8,2.3,10.6,1,13,1c1.7,0,2.2,0.5,2.3,0.9
		c0.1,0.2,0.2,0.3,0.4,0.3c1.1,0,1.5,1.1,1.5,2.2v2.4c0,0.2,0.1,0.4,0.3,0.4c0.1,0.1,0.1,0.1,0.1,0.2c0.3,0.5,0,1.5-0.5,2
		c-0.1,0.1-0.3,0.1-0.3,0.1c0,0-0.1,0-0.1,0c-0.2,0-0.4,0.2-0.5,0.4l-0.6,2.6c0,0,0,0.1,0,0.1v0.8l-2.7,2l-2.6-2l0-0.8
		c0,0,0-0.1,0-0.1L9.7,9.8C9.7,9.6,9.5,9.4,9.3,9.4 M25.3,18.8c-0.3-0.9-0.7-1.5-1.7-1.9c-0.8-0.4-5.3-1.8-6.5-2.2l-0.4-1.2v-0.9
		l0.5-2.2c0.2,0,0.5-0.1,0.7-0.3c0.7-0.7,1.2-2.2,0.7-3.2c-0.1-0.2-0.2-0.3-0.3-0.4V4.4c0-1.8-0.8-3-2.1-3.2C15.4,0.1,14.1,0,13,0
		C10,0,7.8,1.7,7.8,4.2v2.3C7.7,6.6,7.6,6.8,7.5,6.9C7,7.9,7.5,9.4,8.2,10.1c0.2,0.2,0.5,0.3,0.7,0.3l0.5,2.2v0.9L9,14.7
		c-1.2,0.4-5.7,1.8-6.5,2.2c-0.9,0.5-1.4,1-1.7,1.9C0.4,20.2,0,22.6,0,24.8c0,0.7,0.6,1.3,1.3,1.3h23.5c0.7,0,1.3-0.6,1.3-1.3
		C26.1,22.6,25.6,20.2,25.3,18.8"/>
	<path class="st0" d="M21.9,20.9h-1v-1c0-0.3-0.2-0.5-0.5-0.5c-0.3,0-0.5,0.2-0.5,0.5v1h-1c-0.3,0-0.5,0.2-0.5,0.5s0.2,0.5,0.5,0.5
		h1v1c0,0.3,0.2,0.5,0.5,0.5c0.3,0,0.5-0.2,0.5-0.5v-1h1c0.3,0,0.5-0.2,0.5-0.5S22.2,20.9,21.9,20.9"/>
</g>
</svg>
