<?xml version="1.0" encoding="utf-8"?>
<!-- Generator: Adobe Illustrator 21.0.0, SVG Export Plug-In . SVG Version: 6.00 Build 0)  -->
<svg version="1.1" id="Layer_1" xmlns="http://www.w3.org/2000/svg" xmlns:xlink="http://www.w3.org/1999/xlink" x="0px" y="0px"
	 viewBox="0 0 26.6 24.1" style="enable-background:new 0 0 26.6 24.1;" xml:space="preserve">
<style type="text/css">
	.st0{fill:#494A4C;}
</style>
<path class="st0" d="M14.5,24.1c6.6,0,12-5.4,12-12c0-6.6-5.4-12.1-12-12.1c-1.8,0-3.6,0.4-5.2,1.2l0.9,1.5c1.4-0.6,2.9-1,4.4-1
	c5.7,0,10.3,4.6,10.3,10.3c0,5.7-4.6,10.3-10.3,10.3S4.2,17.7,4.2,12.1v-0.9h2.5L3.3,5.4L0,11.2h2.5V12C2.5,18.7,7.9,24.1,14.5,24.1
	z"/>
</svg>
